<svg width="178" height="178" viewBox="0 0 178 178" fill="none" xmlns="http://www.w3.org/2000/svg">
<path d="M12.4133 1.3855L26.3442 157.782L88.854 175.211L151.538 157.718L165.48 1.3855H12.4133ZM136.539 37.2166L131.902 89.3173L131.916 89.5985L131.896 90.2455V90.24L128.602 126.67L128.239 129.906L88.9468 140.774V140.775L88.9163 140.801L49.6922 129.873L47.0362 99.754H66.2708L67.6355 115.069L88.9523 120.846L88.9468 120.858V120.855L110.343 114.996L112.604 90.0557H67.8765L67.4927 85.8397L66.6185 75.9627L66.1599 70.6591H114.304L116.055 51.2625H42.7274L42.3437 47.0493L41.4708 37.1695L41.0108 31.8659H136.998L136.539 37.2166V37.2166Z" fill="#1572B6"/>
</svg>
