<svg width="178" height="178" viewBox="0 0 178 178" fill="none" xmlns="http://www.w3.org/2000/svg">
<path d="M175.774 136.663C169.457 138.271 165.55 136.733 162.044 131.468C154.175 119.678 145.488 108.427 137.106 96.9696C136.025 95.4872 134.903 94.0324 133.504 92.1897C123.584 105.573 113.678 118.32 104.381 131.579C101.056 136.317 97.5645 138.381 91.3575 136.705L128.654 86.6479L93.9345 41.4399C99.9059 40.2761 104.035 40.8719 107.692 46.2198C115.77 58.024 124.678 69.2602 133.559 81.1475C142.495 69.3017 151.293 58.0517 159.606 46.3583C162.945 41.62 166.533 39.8189 172.532 41.5646C167.988 47.5914 163.541 53.5212 159.066 59.4095C153.025 67.3482 147.095 75.384 140.833 83.1565C138.602 85.9274 138.962 87.7285 140.957 90.3471C152.54 105.573 163.984 120.952 175.774 136.663ZM2.11929 85.8166C3.11683 80.815 3.78186 75.7165 5.16733 70.8119C13.4802 41.1212 47.5628 28.7767 70.9773 47.1758C84.6934 57.9686 88.1017 73.1811 87.4228 90.3332H10.1135C8.94967 121.105 31.1034 139.684 59.3393 130.207C69.2454 126.882 75.0783 119.123 78.0016 109.425C79.4841 104.562 81.9363 103.8 86.5084 105.185C84.167 117.322 78.8606 127.464 67.7768 133.809C51.1512 143.314 27.418 140.238 14.9349 127.034C7.5642 119.276 4.43303 109.619 3.04756 99.1864C2.83974 97.5238 2.41024 95.889 2.07773 94.2402C2.10544 91.4324 2.11929 88.6245 2.11929 85.8166V85.8166ZM10.252 83.7522H80.1214C79.6642 61.5015 65.8095 45.6933 46.87 45.5548C26.088 45.3885 11.1526 60.8227 10.252 83.7522V83.7522Z" fill="#F8F8F2"/>
</svg>
