<svg width="178" height="180" viewBox="0 0 178 180" fill="none" xmlns="http://www.w3.org/2000/svg">
<path d="M63.1459 179.279C79.633 179.279 92.9335 165.979 92.9335 149.492V119.704H63.1459C46.6588 119.704 33.3582 133.004 33.3582 149.492C33.3582 165.979 46.6588 179.279 63.1459 179.279Z" fill="#0ACF83"/>
<path d="M33.3582 89.9161C33.3582 73.429 46.6588 60.1284 63.1459 60.1284H92.9335V119.704H63.1459C46.6588 119.704 33.3582 106.403 33.3582 89.9161Z" fill="#A259FF"/>
<path d="M33.3582 30.3409C33.3582 13.8538 46.6588 0.553223 63.1459 0.553223H92.9335V60.1285H63.1459C46.6588 60.1285 33.3582 46.828 33.3582 30.3409Z" fill="#F24E1E"/>
<path d="M92.9336 0.553223H122.721C139.208 0.553223 152.509 13.8538 152.509 30.3409C152.509 46.828 139.208 60.1285 122.721 60.1285H92.9336V0.553223Z" fill="#FF7262"/>
<path d="M152.509 89.9161C152.509 106.403 139.208 119.704 122.721 119.704C106.234 119.704 92.9336 106.403 92.9336 89.9161C92.9336 73.429 106.234 60.1284 122.721 60.1284C139.208 60.1284 152.509 73.429 152.509 89.9161Z" fill="#1ABCFE"/>
</svg>
