<svg width="179" height="178" viewBox="0 0 179 178" fill="none" xmlns="http://www.w3.org/2000/svg">
<path d="M38.7227 111.836L53.5195 17.014C54.0321 13.7859 58.3686 13.01 59.8927 15.9057L75.7979 45.6656L38.7227 111.836V111.836ZM143.935 134.876L129.817 47.536C129.388 44.8205 125.994 43.7121 124.04 45.6656L35.065 134.876L84.3047 162.516C85.8284 163.355 87.5394 163.794 89.2785 163.794C91.0177 163.794 92.7286 163.355 94.2524 162.516L143.935 134.876V134.876ZM103.965 58.6752L92.5621 36.9925C91.2875 34.5264 87.7961 34.5264 86.5214 36.9925L36.4366 126.286L103.965 58.6752V58.6752Z" fill="#F58220"/>
</svg>
