<svg width="178" height="178" viewBox="0 0 178 178" fill="none" xmlns="http://www.w3.org/2000/svg">
<path d="M173.096 81.4334L96.7346 5.07448C92.3399 0.676995 85.2075 0.676995 80.8058 5.07448L64.9505 20.9326L85.0648 41.0469C89.7407 39.4688 95.0997 40.5273 98.8253 44.2529C102.57 48.002 103.62 53.4067 102.004 58.0979L121.389 77.4848C126.079 75.868 131.492 76.9126 135.235 80.6645C140.473 85.8974 140.473 94.3806 135.235 99.6163C133.991 100.861 132.513 101.849 130.887 102.523C129.26 103.197 127.517 103.544 125.757 103.544C123.996 103.544 122.253 103.197 120.627 102.523C119 101.849 117.523 100.861 116.278 99.6163C114.408 97.7453 113.134 95.363 112.615 92.7693C112.096 90.1755 112.356 87.4862 113.362 85.0398L95.284 66.9621L95.2812 114.541C96.5928 115.187 97.7903 116.042 98.8266 117.073C104.061 122.306 104.061 130.787 98.8266 136.031C93.5909 141.264 85.1049 141.264 79.8748 136.031C74.6405 130.788 74.6405 122.308 79.8748 117.073C81.1288 115.817 82.6204 114.823 84.2626 114.15V66.1309C82.6191 65.4592 81.1271 64.4647 79.8748 63.2061C75.9096 59.2437 74.955 53.4247 76.9888 48.5534L57.1586 28.7231L4.79881 81.0801C2.68641 83.1932 1.49973 86.0587 1.49973 89.0466C1.49973 92.0344 2.68641 94.9 4.79881 97.013L81.1619 173.372C85.5594 177.769 92.689 177.769 97.0934 173.372L173.098 97.3677C175.21 95.254 176.396 92.3882 176.396 89.4003C176.395 86.4123 175.209 83.5467 173.096 81.4334V81.4334Z" fill="#F34F29"/>
</svg>
