<svg width="449" height="449" viewBox="0 0 449 449" fill="none" xmlns="http://www.w3.org/2000/svg">
<path d="M434.128 14.1274C417.692 -2.30902 387.271 0.127403 364.13 0.127403H84.1271C60.986 0.127403 30.5571 -2.30902 14.1206 14.1274C-2.31584 30.5639 0.128451 60.9849 0.128451 84.126V364.129C0.128451 387.27 -2.31584 417.699 14.1206 434.135C30.5571 450.571 60.986 448.127 84.1271 448.127H149.469C153.73 448.127 156.936 447.97 159.089 447.679C161.594 447.177 163.854 445.841 165.502 443.889C167.632 441.647 168.709 438.396 168.709 434.135L168.552 414.29C168.462 401.643 168.417 391.642 168.417 384.243L161.69 385.409C157.43 386.193 152.048 386.53 145.523 386.44C138.721 386.315 131.942 385.632 125.252 384.4C118.13 383.085 111.426 380.086 105.699 375.654C99.7001 371.117 95.2261 364.859 92.8722 357.716L89.9572 350.989C87.5002 345.682 84.4134 340.691 80.7635 336.122C76.5927 330.673 72.3547 326.995 68.0718 325.044L66.0537 323.587C64.6464 322.579 63.3664 321.405 62.2417 320.089C61.1674 318.868 60.283 317.492 59.6181 316.008C59.0351 314.64 59.5284 313.519 61.0756 312.644C62.6453 311.747 65.4482 311.321 69.5518 311.321L75.3819 312.218C79.2611 312.981 84.0822 315.313 89.8002 319.192C95.5868 323.137 100.421 328.323 103.949 334.373C108.434 342.333 113.816 348.41 120.139 352.603C126.463 356.774 132.831 358.882 139.244 358.882C145.657 358.882 151.196 358.388 155.882 357.424C160.414 356.487 164.818 355.012 169 353.029C170.749 340.023 175.503 329.978 183.284 322.982C173.202 321.993 163.209 320.239 153.393 317.734C143.814 315.103 134.601 311.284 125.969 306.366C116.938 301.449 108.961 294.805 102.492 286.812C96.2806 279.031 91.168 268.829 87.1767 256.204C83.2077 243.557 81.212 228.96 81.212 212.434C81.212 188.911 88.8808 168.887 104.241 152.338C97.0654 134.669 97.7381 114.824 106.282 92.8712C111.932 91.0997 120.296 92.4227 131.373 96.7953C142.451 101.168 150.568 104.913 155.725 108.007C160.883 111.146 165.009 113.77 168.126 115.9C186.355 110.827 205.195 108.277 224.117 108.321C243.379 108.321 262.035 110.855 280.131 115.9L291.208 108.904C299.729 103.788 308.716 99.4934 318.049 96.0778C328.364 92.1761 336.213 91.1222 341.684 92.8712C350.429 114.846 351.191 134.669 343.993 152.361C359.354 168.887 367.045 188.911 367.045 212.456C367.045 228.982 365.049 243.625 361.058 256.339C357.089 269.075 351.931 279.278 345.608 286.969C339.285 294.661 331.414 301.096 321.996 306.366C312.578 311.613 303.429 315.402 294.572 317.734C284.757 320.247 274.764 322.009 264.681 323.004C274.772 331.749 279.84 345.54 279.84 364.398V434.135C279.84 437.431 280.311 440.1 281.297 442.14C281.751 443.123 282.397 444.005 283.199 444.733C284 445.461 284.939 446.021 285.961 446.378C288.114 447.141 289.998 447.634 291.657 447.813C293.316 448.038 295.693 448.105 298.788 448.105H364.13C387.271 448.105 417.692 450.572 434.128 434.135C450.542 417.721 448.128 387.247 448.128 364.106V84.126C448.128 60.9849 450.565 30.5639 434.128 14.1274Z" fill="black"/>
</svg>
