<svg width="448" height="448" viewBox="0 0 448 448" fill="none" xmlns="http://www.w3.org/2000/svg">
<path d="M299.9 159.2C305 196.5 295.2 238.2 264 259.9C241.7 275.4 211.2 274 193.2 265.6C156.1 248.3 143.7 207 146.4 168.4C150.7 107.5 187.3 80.5 221.7 80.9C268.6 80.7 293.5 112.7 299.9 159.2ZM448 56V392C448 422.9 422.9 448 392 448H56C25.1 448 0 422.9 0 392V56C0 25.1 25.1 0 56 0H392C422.9 0 448 25.1 448 56ZM330 281.2C330 281.2 329.9 247.2 329.9 63.9H300.9V104.2C300.1 104.5 299.7 103.7 299.3 103C289.7 82.3 263.4 56.7 223.3 57C171.4 57.4 136.1 88.2 122.7 134.8C118.4 149.7 116.9 164.9 117.2 180.4C118.9 258.3 162.3 298.2 229.6 295.6C258.5 294.5 284.1 278.6 298.6 250.4C299.1 249.4 299.7 248.5 300.3 247.5C300.5 247.6 300.7 247.6 300.9 247.7C301.2 251.5 301.1 278.4 301 282.2C300.8 297 299 311.7 293.8 325.7C286 346.7 271.5 360.4 249.3 365.2C231.5 369.1 213.7 369 196.1 364C174.6 357.9 159.6 345 155 322.2C154.7 320.6 153.7 320.9 152.7 320.9H125.9C126.7 331.5 129.1 341.2 134.4 350.1C158.6 390.6 217.1 398.6 262.6 387.5C312.5 375.2 329.9 332.6 330 281.2Z" fill="black"/>
</svg>
