<svg width="178" height="178" viewBox="0 0 178 178" fill="none" xmlns="http://www.w3.org/2000/svg">
<path d="M141.564 3.04761H35.9907C26.8465 3.04761 19.5035 10.3906 19.5035 19.5347V158.498C19.5035 167.642 26.8465 174.985 35.9907 174.985H141.702C150.846 174.985 158.189 167.642 158.189 158.498V19.5347C158.051 10.3906 150.708 3.04761 141.564 3.04761ZM51.3694 150.877V111.807L70.9046 131.342L51.3694 150.877ZM124.799 151.293H106.65L106.788 151.016V82.5737C106.788 82.5737 111.083 66.2251 51.785 89.224C51.6465 89.5011 51.5079 25.9079 51.5079 25.9079L70.766 25.7694V66.5022C70.766 66.5022 124.799 45.166 124.799 82.7123V151.293ZM117.595 50.1537H97.09C104.433 41.8408 111.222 26.6006 111.222 26.6006H132.42C132.42 26.6006 128.817 36.2989 117.595 50.1537Z" fill="#6762A6"/>
</svg>
