<svg width="178" height="178" viewBox="0 0 178 178" fill="none" xmlns="http://www.w3.org/2000/svg">
<path d="M3.32413 1.3855V174.57H176.508V1.3855H3.32413ZM94.9302 148.956C92.374 154.15 87.4943 157.563 81.8402 159.21C73.1519 161.205 64.8419 160.068 58.6599 156.357C54.5229 153.819 51.292 149.912 49.0988 145.411L62.2884 137.334C62.4034 137.382 62.7498 138.008 63.2126 138.817C64.8945 141.635 66.3451 143.631 69.1964 145.031C71.9978 145.987 78.1479 146.598 80.5226 141.669C81.9732 139.161 81.5119 131.1 81.5119 122.182C81.5105 108.168 81.5756 94.2121 81.5756 80.3574H97.7981C97.7981 95.5976 97.8812 110.031 97.7981 124.903C97.8327 134.02 98.6238 142.147 94.9302 148.956ZM162.228 144.373C156.589 163.662 125.15 164.288 112.587 151.544C109.932 148.545 108.268 146.978 106.685 143.516C113.361 139.675 113.361 139.675 119.858 135.916C123.386 141.34 126.649 144.323 132.519 145.544C140.483 146.516 148.495 143.78 146.698 135.322C144.852 128.414 130.391 126.733 120.55 119.346C110.56 112.636 108.218 96.3319 116.429 87.016C119.165 83.5703 123.831 80.9989 128.727 79.763L133.837 79.1022C143.648 78.9041 149.78 81.4949 154.281 86.5214C155.533 87.7905 156.556 89.1593 158.468 92.1256C153.242 95.4563 153.259 95.4244 145.773 100.271C144.174 96.8265 141.521 94.6652 138.717 93.7258C134.363 92.4069 128.874 93.8408 127.735 98.4406C127.341 99.8579 127.422 101.177 128.05 103.518C129.814 107.54 135.732 109.289 141.041 111.729C156.325 117.927 161.485 124.573 162.755 132.484C163.977 139.295 162.459 143.714 162.228 144.373V144.373Z" fill="#F0DB4F"/>
</svg>
