<svg width="179" height="178" viewBox="0 0 179 178" fill="none" xmlns="http://www.w3.org/2000/svg">
<path d="M172.807 87.8649C172.807 77.2078 164.733 68.2397 153.893 65.6807L178.17 0.708984H57.8561L82.1891 65.8858C71.69 68.6512 63.9508 77.4628 63.9508 87.9189C63.9508 95.6027 68.1875 102.416 74.6231 106.617C72.0849 109.897 69.1463 112.921 65.817 115.789C59.5505 121.12 52.601 125.217 45.0945 127.934C38.3195 123.783 35.3851 116.455 38.0369 109.895C48.3684 107.027 55.8818 98.2656 55.8818 87.9674C55.8818 75.3139 44.532 65.0628 30.6385 65.0628C16.6923 65.0628 5.34945 75.3624 5.34945 88.0201C5.34945 94.2727 8.16889 100.009 12.6883 104.105C12.2921 104.826 11.8986 105.539 11.5023 106.308C7.71999 113.383 3.4278 121.375 1.7874 130.343C-1.48647 148.273 3.8767 162.675 16.8059 170.82C24.0907 175.382 32.1112 177.688 40.7496 177.688C55.5936 177.688 70.6717 170.923 85.2358 164.362C95.6268 159.703 106.353 154.832 116.912 152.478C120.809 151.606 124.873 151.092 129.165 150.53C137.856 149.403 146.835 148.224 154.91 143.971C164.338 139.003 170.773 130.7 172.64 121.17C174.046 113.841 172.64 106.465 169.024 100.009C171.494 96.4413 172.813 92.2038 172.806 87.8649H172.807ZM161.8 87.8649C161.8 94.9862 155.418 100.777 147.571 100.777C139.724 100.777 133.342 94.9862 133.342 87.8649C133.342 85.5581 134.02 83.3566 135.204 81.4612C135.654 80.7408 136.223 80.0273 136.784 79.4107C137.378 78.7767 138.041 78.2103 138.761 77.7218L138.82 77.6678C139.269 77.3602 139.778 77.0513 140.286 76.7479C140.286 76.7479 140.342 76.7479 140.342 76.6938C140.567 76.5913 140.795 76.4389 141.023 76.3364C141.077 76.3364 141.131 76.2823 141.189 76.2823C141.418 76.1854 141.699 76.0828 141.979 75.9789C142.246 75.8856 142.51 75.783 142.77 75.6713C142.826 75.6713 142.884 75.6159 142.938 75.6159C143.165 75.5688 143.392 75.4649 143.615 75.4164C143.675 75.4164 143.789 75.3624 143.843 75.3624C144.124 75.3139 144.351 75.2599 144.632 75.21H144.692L145.537 75.0534C145.595 75.0534 145.703 75.0534 145.763 75.0049C145.99 75.0049 146.213 74.9509 146.44 74.9509H146.722C147.003 74.9509 147.29 74.9024 147.625 74.9024H148.361C148.582 74.9024 148.757 74.9024 148.979 74.9509H149.092C149.547 75.0063 149.996 75.0534 150.45 75.1573C156.885 76.3849 161.8 81.6136 161.8 87.8649V87.8649ZM73.6047 10.9546H162.416L142.035 65.5241C141.189 65.6807 140.34 65.9342 139.496 66.1892L118.044 26.4815L96.5301 65.9329C95.6808 65.6793 94.7775 65.5228 93.8784 65.3704L73.6047 10.9546ZM113.973 83.4037C112.902 78.5864 110.191 74.2845 106.353 71.1076L118.044 49.6924L129.841 71.5676C126.34 74.7445 123.8 78.7928 122.783 83.4037H113.973ZM85.6902 75.3125C85.9715 75.2571 86.1987 75.21 86.4799 75.1559H86.6476C86.8748 75.1075 87.1034 75.1075 87.3251 75.052H87.5523C87.7795 75.052 87.9471 75.0035 88.1744 75.0035H90.3773C90.5989 75.0035 90.7721 75.052 90.9398 75.052C91.0534 75.052 91.1074 75.052 91.221 75.1075C91.4482 75.1559 91.6159 75.156 91.8445 75.21C91.8971 75.21 91.9567 75.21 92.0703 75.2585C92.3529 75.3125 92.6342 75.361 92.86 75.415H92.9154C93.1427 75.4635 93.3699 75.512 93.5916 75.6159C93.6511 75.6159 93.7052 75.67 93.8188 75.67C93.9864 75.7184 94.2136 75.7725 94.3813 75.875C94.4409 75.875 94.4949 75.9235 94.5545 75.9235C94.7761 76.0274 95.0047 76.0814 95.232 76.184H95.286C95.5672 76.281 95.7945 76.3835 96.0217 76.5414H96.0771C96.3029 76.6439 96.5301 76.795 96.7574 76.8975C96.8128 76.8975 96.8128 76.9529 96.8654 76.9529C97.0926 77.0499 97.2617 77.2064 97.4889 77.309L97.5485 77.3575C98.2246 77.8188 98.8467 78.3328 99.4632 78.8468L99.5228 78.8953C100.087 79.4578 100.649 80.0744 101.104 80.7408C102.571 82.7913 103.42 85.2006 103.42 87.8136C103.42 94.9363 97.0386 100.722 89.1913 100.722C81.344 100.722 74.9625 94.9363 74.9625 87.8136C74.9043 81.8173 79.4777 76.7465 85.6902 75.3125V75.3125ZM30.13 74.9495C37.9787 74.9495 44.3588 80.7408 44.3588 87.8621C44.3588 94.9848 37.9787 100.775 30.13 100.775C22.2827 100.775 15.9012 94.9848 15.9012 87.8621C15.9012 80.7408 22.2827 74.9495 30.13 74.9495V74.9495ZM161.459 119.377C160.219 125.931 155.754 131.674 149.206 135.104C143.052 138.335 135.485 139.357 127.525 140.381C123.18 140.944 118.606 141.56 114.2 142.534C102.457 145.149 91.167 150.273 80.2134 155.188C66.2119 161.493 52.9958 167.435 40.7496 167.435C34.3682 167.435 28.6642 165.796 23.247 162.364C10.8262 154.577 11.4428 139.975 12.9155 131.981C14.2677 124.497 18.0515 117.478 21.6662 110.767C21.8878 110.355 22.061 109.998 22.2827 109.586C23.5282 109.998 24.8264 110.307 26.18 110.512C24.0367 121.374 30.13 132.593 41.9883 138.13L44.1357 139.152L46.4481 138.383C56.3307 135.206 65.4762 130.033 73.5507 123.115C78.1241 119.22 82.0215 115.02 85.2953 110.458C86.5935 110.664 87.8931 110.718 89.1913 110.718C100.936 110.718 110.813 103.389 113.638 93.5509H123.12C125.945 103.439 135.826 110.717 147.571 110.717C152.258 110.717 156.604 109.539 160.327 107.541C161.8 111.383 162.249 115.378 161.459 119.377V119.377Z" fill="#99425B"/>
</svg>
