<svg width="178" height="178" viewBox="0 0 178 178" fill="none" xmlns="http://www.w3.org/2000/svg">
<path d="M150.045 22.7207H86.0116C86.0116 38.6813 98.9297 51.605 114.895 51.605H126.671V63.0019C126.671 78.9626 139.595 91.8862 155.555 91.8862V28.2307C155.554 26.7697 154.973 25.3689 153.94 24.3358C152.907 23.3027 151.506 22.7218 150.045 22.7207V22.7207Z" fill="#2684FF"/>
<path d="M118.316 54.6423H54.2811C54.2811 70.6015 67.2006 83.5252 83.1598 83.5252H94.9419V94.9221C94.9419 110.883 107.866 123.806 123.826 123.806V60.1509C123.824 58.6902 123.243 57.29 122.21 56.2571C121.177 55.2243 119.777 54.6431 118.316 54.6409V54.6423Z" fill="url(#paint0_linear_34_45)"/>
<path d="M86.5856 86.5608H22.5505C22.5505 102.527 35.4686 115.445 51.4348 115.445H63.2113V126.848C63.2113 142.808 76.135 155.726 92.0943 155.726V92.0764C92.0928 90.6153 91.5121 89.2145 90.4795 88.1808C89.4469 87.1472 88.0467 86.5651 86.5856 86.5622V86.5608Z" fill="url(#paint1_linear_34_45)"/>
<defs>
<linearGradient id="paint0_linear_34_45" x1="122.493" y1="54.7143" x2="95.2495" y2="82.8061" gradientUnits="userSpaceOnUse">
<stop offset="0.176" stop-color="#0052CC"/>
<stop offset="1" stop-color="#2684FF"/>
</linearGradient>
<linearGradient id="paint1_linear_34_45" x1="92.6055" y1="86.8074" x2="61.1054" y2="117.454" gradientUnits="userSpaceOnUse">
<stop offset="0.176" stop-color="#0052CC"/>
<stop offset="1" stop-color="#2684FF"/>
</linearGradient>
</defs>
</svg>
