<svg width="451" height="451" viewBox="0 0 451 451" fill="none" xmlns="http://www.w3.org/2000/svg">
<path fill-rule="evenodd" clip-rule="evenodd" d="M64.4286 0C47.3411 0 30.9534 6.78799 18.8707 18.8707C6.78799 30.9534 0 47.3411 0 64.4286V386.571C0 403.659 6.78799 420.047 18.8707 432.129C30.9534 444.212 47.3411 451 64.4286 451H386.571C403.659 451 420.047 444.212 432.129 432.129C444.212 420.047 451 403.659 451 386.571V64.4286C451 47.3411 444.212 30.9534 432.129 18.8707C420.047 6.78799 403.659 0 386.571 0H64.4286ZM99.9287 138.425C110.139 138.425 119.93 134.369 127.15 127.15C134.369 119.93 138.425 110.139 138.425 99.9287C138.425 89.7189 134.369 79.9273 127.15 72.7079C119.93 65.4885 110.139 61.4326 99.9287 61.4326C89.7189 61.4326 79.9273 65.4885 72.7079 72.7079C65.4885 79.9273 61.4326 89.7189 61.4326 99.9287C61.4326 110.139 65.4885 119.93 72.7079 127.15C79.9273 134.369 89.7189 138.425 99.9287 138.425ZM132.143 380.547V168.61H67.7144V380.547H132.143ZM174.924 168.61H239.352V196.99C248.855 182.107 269.73 162.07 308.548 162.07C354.873 162.07 380.032 192.77 380.032 251.175C380.032 253.977 380.29 266.767 380.29 266.767V380.515H315.861V266.799C315.861 251.175 312.575 220.475 277.848 220.475C243.089 220.475 240.158 259.067 239.352 284.323V380.515H174.924V168.61Z" fill="black"/>
</svg>
