<svg width="178" height="178" viewBox="0 0 178 178" fill="none" xmlns="http://www.w3.org/2000/svg">
<path d="M174.398 170.39L170.774 166.875C167.339 162.314 162.921 158.307 158.284 154.981C154.586 152.326 146.284 148.741 144.741 144.439L144.456 144.168C147.079 143.872 150.141 142.924 152.562 142.275C156.626 141.186 159.982 141.467 164.18 140.383C166.073 139.843 168.197 139.301 169.582 138.761V137.68C168.197 135.504 166.219 132.622 163.906 130.652C157.853 125.498 151.38 120.348 144.577 116.053C140.804 113.673 136.207 112.125 132.21 110.107C130.865 109.426 128.536 109.073 127.647 107.943C125.545 105.266 124.421 101.871 122.8 98.7527C119.407 92.2174 116.082 85.0808 113.076 78.2047C111.025 73.5163 109.691 68.8944 107.133 64.6881C94.858 44.5059 81.6475 32.3262 61.1813 20.353C56.824 17.8065 51.5814 16.802 46.0395 15.4858C43.069 15.3071 40.0944 15.1256 37.1212 14.9441C35.3048 14.1876 33.4164 11.9667 31.7151 10.8888C24.9318 6.60492 7.53998 -2.71238 2.51765 9.53797C-0.653698 17.2703 7.25596 24.8128 10.0851 28.7323C12.0732 31.4783 14.6156 34.561 16.0329 37.652C16.9681 39.6845 17.1275 41.7225 17.9269 43.8714C19.8915 49.1666 21.5998 54.9274 24.1435 59.8195C25.4278 62.2967 26.8438 64.9042 28.4689 67.1182C29.4637 68.4773 31.1706 69.0759 31.4408 71.1735C29.7727 73.5094 29.6771 77.1365 28.7391 80.0959C24.5134 93.4172 26.1095 109.976 32.254 119.835C34.1383 122.864 38.5801 129.355 44.6887 126.864C50.031 124.689 49.1582 117.944 50.6864 111.995C51.0313 110.648 50.43 109.656 51.8155 108.752V109.022C53.2331 112.311 54.7495 115.556 56.3626 118.753C59.9649 124.554 65.9072 130.616 71.323 134.706C74.1313 136.827 76.754 140.493 79.525 141.734V141.594H79.8312C79.1287 140.209 78.0273 139.977 77.1295 139.095C75.0139 137.022 72.66 134.409 70.9129 132.033C65.9861 125.345 61.633 118.009 57.6664 110.389C55.771 106.751 54.1237 102.729 52.5277 99.027C51.9139 97.6 51.9208 95.4359 50.6379 94.6974C48.888 97.4102 46.3124 99.602 44.9588 102.807C42.7961 107.927 42.5176 114.173 41.7154 120.647C41.2402 120.816 41.4522 120.7 41.1737 120.916C37.408 120.009 36.0863 116.133 34.6855 112.807C31.1457 104.397 30.4889 90.8569 33.6035 81.178C34.4098 78.6716 38.0522 70.7855 36.5767 68.4704C35.8729 66.1636 33.5508 64.8266 32.2527 63.0629C30.6441 60.8822 29.0397 58.0115 27.9258 55.4927C25.0288 48.938 23.678 41.577 20.6272 34.9489C19.1683 31.7803 16.7035 28.573 14.6793 25.7577C12.439 22.6362 9.92854 20.3377 8.18977 16.5651C7.57324 15.2239 6.73364 13.0765 7.64944 11.6979C7.94039 10.7683 8.35187 10.3803 9.27183 10.0769C10.8416 8.8674 15.2058 10.4787 16.8407 11.1562C21.1758 12.9573 24.7947 14.6199 28.4675 17.0528C30.2285 18.2221 32.013 19.6713 34.1438 21.0568H36.5767C40.3826 21.0568 44.6457 21.3782 48.2022 22.4589C54.4853 24.3694 60.1173 27.3662 65.2324 30.5958C80.8135 40.4354 93.5529 54.4536 102.269 71.1596C103.671 73.8502 104.278 76.423 105.512 79.2757C108.003 85.0296 111.143 90.9525 113.621 96.5789C116.096 102.194 118.507 107.859 122.004 112.531C123.842 114.986 130.941 116.305 134.168 117.67C136.43 118.625 140.137 119.622 142.279 120.912C146.37 123.381 150.334 126.321 154.174 129.024C156.092 130.373 161.988 133.338 162.283 135.782C152.775 135.522 145.514 136.408 139.305 139.026C137.542 139.77 134.726 139.79 134.438 142C135.408 143.016 135.559 144.534 136.329 145.784C137.81 148.181 140.314 151.398 142.547 153.083C144.989 154.925 147.502 156.894 150.118 158.489C154.771 161.325 159.964 162.946 164.445 165.787C167.085 167.464 169.928 169.574 172.501 171.464C173.776 172.399 173.736 173.852 176.507 174.438V174.169C175.123 173.068 175.196 171.547 174.398 170.39V170.39ZM41.4439 32.7876C39.4613 32.7502 37.9608 33.0051 36.5753 33.3265V33.5288H36.8496C37.7959 34.9143 39.4654 36.757 40.6334 38.4306L43.3378 44.1221L43.6052 43.863C45.2802 42.6812 46.0478 40.7998 46.0381 37.918C45.3689 37.2128 45.2678 36.3302 44.6887 35.4879C43.9156 34.367 42.4179 33.7311 41.4439 32.7876V32.7876Z" fill="#00618A"/>
</svg>
