<svg width="177" height="177" viewBox="0 0 177 177" fill="none" xmlns="http://www.w3.org/2000/svg">
<path d="M88.5 0C39.6867 0 0 39.6867 0 88.5C0 137.313 39.6867 177 88.5 177C137.313 177 177 137.313 177 88.5C177 39.6867 137.313 0 88.5 0ZM133.718 158.194L66.9281 57.8016H57.525V127.08H66.9281V76.4695L128.048 161.513C116.295 167.873 102.881 171.469 88.5 171.469C42.5906 171.607 5.39297 134.409 5.39297 88.5C5.39297 42.5906 42.5906 5.39297 88.5 5.39297C134.409 5.39297 171.607 42.5906 171.607 88.5C171.607 117.677 156.534 143.398 133.718 158.194V158.194Z" fill="#F8F8F2"/>
<path d="M108.689 101.36L119.06 116.986V57.8015H108.689V101.36Z" fill="#F8F8F2"/>
</svg>
