<svg width="178" height="178" viewBox="0 0 178 178" fill="none" xmlns="http://www.w3.org/2000/svg">
<path d="M156.241 42.3031L95.1459 6.82807C91.2929 4.63348 86.2761 4.63348 82.3927 6.82807L20.6449 42.3031C16.6686 44.5905 13.8547 48.8896 13.8547 53.488V124.344C13.8547 128.942 16.7421 133.243 20.7184 135.543L37.0323 144.809C44.8297 148.649 47.5854 148.649 51.1336 148.649C62.6788 148.649 69.2736 141.668 69.2736 129.491V59.5384C69.2736 58.5505 68.7596 57.0805 67.7898 57.0805H59.9993C59.0128 57.0805 56.8044 58.5505 56.8044 59.537V129.489C56.8044 134.887 51.922 140.259 42.7972 135.696L25.9402 125.98C25.3528 125.661 24.9385 125.02 24.9385 124.344V53.488C24.9385 52.8202 25.7075 52.1496 26.299 51.8074L87.8473 16.3934C88.4222 16.0678 89.2674 16.0678 89.841 16.3934L150.638 51.7991C151.22 52.1496 151.015 52.7994 151.015 53.488V124.344C151.015 125.02 151.269 125.678 150.694 126.004L89.6137 161.438C89.09 161.753 88.4402 161.753 87.8667 161.438L72.2011 152.088C71.7287 151.814 71.1676 151.715 70.7145 151.969C66.3558 154.439 65.5522 154.767 61.4637 156.185C60.4579 156.535 58.974 157.143 62.0318 158.857L82.534 170.986C84.4913 172.116 86.7118 172.712 88.9723 172.712C91.2472 172.712 93.475 172.122 95.4383 170.986L156.24 135.543C160.216 133.226 162.1 128.942 162.1 124.344V53.488C162.1 48.8896 160.216 44.6016 156.241 42.3031V42.3031ZM107.942 113.116C91.6961 113.116 88.1174 108.634 86.9245 100.555C86.786 99.6852 86.0475 98.6447 85.1622 98.6447H77.2221C76.2398 98.6447 75.4501 99.8362 75.4501 100.814C75.4501 111.158 81.0737 123.691 107.944 123.691C127.394 123.691 138.546 116.134 138.546 102.758C138.546 89.4964 129.586 86.0161 110.723 83.5195C91.6559 80.9993 89.719 79.7261 89.719 75.2593C89.719 71.5767 91.3594 66.6652 105.477 66.6652C118.092 66.6652 122.742 69.3724 124.655 77.8751C124.819 78.6745 125.549 79.2481 126.373 79.2481H134.345C134.836 79.2481 135.304 79.05 135.647 78.6994C135.98 78.3226 136.156 77.8501 136.112 77.3431C134.877 62.7014 125.15 55.8779 105.476 55.8779C87.9761 55.8779 77.5366 63.268 77.5366 75.6556C77.5366 89.0919 87.9235 92.8049 104.722 94.4661C124.819 96.4362 126.381 99.3734 126.381 103.326C126.381 110.191 120.87 113.116 107.942 113.116Z" fill="#83CD29"/>
</svg>
