<svg width="179" height="178" viewBox="0 0 179 178" fill="none" xmlns="http://www.w3.org/2000/svg">
<path d="M89.5 104.465C98.223 104.465 105.294 97.3931 105.294 88.6701C105.294 79.9471 98.223 72.8757 89.5 72.8757C80.777 72.8757 73.7056 79.9471 73.7056 88.6701C73.7056 97.3931 80.777 104.465 89.5 104.465Z" fill="#61DAFB"/>
<path d="M149.491 62.6234C146.443 61.515 143.256 60.4067 139.931 59.4368C140.762 56.1117 141.455 52.7866 142.009 49.6C144.919 31.3118 141.732 18.4269 132.865 13.4392C130.233 11.9151 127.323 11.2224 123.998 11.2224C114.3 11.2224 101.969 18.4269 89.5 30.4805C77.0307 18.4269 64.7 11.2224 55.0017 11.2224C51.6766 11.2224 48.7671 11.9151 46.1347 13.4392C37.2677 18.5654 34.0811 31.4503 36.9906 49.6C37.5448 52.7866 38.2375 56.1117 39.0688 59.4368C35.7437 60.4067 32.5571 61.3765 29.5091 62.6234C12.1907 69.2737 2.76944 78.4178 2.76944 88.6703C2.76944 98.9228 12.3292 108.067 29.5091 114.717C32.5571 115.826 35.7437 116.934 39.0688 117.904C38.2375 121.229 37.5448 124.554 36.9906 127.741C34.0811 146.029 37.2677 158.914 46.1347 163.901C48.7671 165.425 51.6766 166.118 55.0017 166.118C64.8386 166.118 77.1693 158.914 89.5 146.86C101.969 158.914 114.3 166.118 123.998 166.118C127.323 166.118 130.233 165.425 132.865 163.901C141.732 158.775 144.919 145.89 142.009 127.741C141.455 124.554 140.762 121.229 139.931 117.904C143.256 116.934 146.443 115.964 149.491 114.717C166.809 108.067 176.231 98.9228 176.231 88.6703C176.231 78.4178 166.809 69.2737 149.491 62.6234V62.6234ZM128.986 20.3665C134.666 23.6917 136.606 33.9442 134.251 48.4916C133.835 51.4011 133.142 54.4491 132.311 57.6357C125.107 55.9732 117.487 54.8648 109.451 54.172C104.74 47.5218 99.891 41.5643 95.0419 36.1609C105.294 26.047 115.685 19.1196 124.137 19.1196C125.938 19.1196 127.6 19.5352 128.986 20.3665V20.3665ZM113.469 102.525C110.975 106.959 108.065 111.392 105.017 115.826C99.891 116.241 94.7648 116.38 89.5 116.38C84.0967 116.38 78.9704 116.241 73.9827 115.826C70.9347 111.392 68.1637 106.959 65.6699 102.525C63.0375 97.953 60.5436 93.2424 58.3269 88.6703C60.5436 84.0982 63.0375 79.3876 65.6699 74.8156C68.1637 70.3821 71.0732 65.9486 74.1213 61.5151C79.2475 61.0994 84.3737 60.9609 89.6385 60.9609C95.0419 60.9609 100.168 61.0994 105.156 61.5151C108.204 65.9486 110.975 70.3821 113.469 74.8156C116.101 79.3876 118.595 84.0982 120.812 88.6703C118.456 93.2424 116.101 97.8144 113.469 102.525ZM124.968 97.953C127.046 102.802 128.709 107.513 130.233 112.223C125.522 113.332 120.535 114.163 115.27 114.856C116.932 112.223 118.733 109.452 120.257 106.543C121.92 103.633 123.444 100.724 124.968 97.953ZM89.5 135.499C86.1749 131.897 82.9883 128.018 79.9402 124C83.1268 124.138 86.3134 124.277 89.5 124.277C92.6866 124.277 95.8732 124.138 99.0598 124C96.0117 128.018 92.8251 131.897 89.5 135.499ZM63.7302 114.717C58.4654 114.024 53.4777 113.193 48.7671 112.085C50.2911 107.513 51.9537 102.664 54.0319 97.8144C55.5559 100.585 57.0799 103.495 58.7425 106.266C60.4051 109.314 62.0676 111.946 63.7302 114.717V114.717ZM54.0319 79.3876C51.9537 74.5385 50.2911 69.8279 48.7671 65.1173C53.4777 64.0089 58.4654 63.1776 63.7302 62.4849C62.0676 65.1173 60.2665 67.8882 58.7425 70.7977C57.0799 73.7072 55.5559 76.6167 54.0319 79.3876V79.3876ZM89.5 41.8413C92.8251 45.4436 96.0117 49.3229 99.0598 53.3408C95.8732 53.2022 92.6866 53.0637 89.5 53.0637C86.3134 53.0637 83.1268 53.2022 79.9402 53.3408C82.9883 49.3229 86.1749 45.4436 89.5 41.8413ZM120.257 70.9363L115.27 62.6234C120.535 63.3162 125.522 64.1474 130.233 65.2558C128.709 69.8279 127.046 74.677 124.968 79.5262C123.444 76.6167 121.92 73.7072 120.257 70.9363ZM44.7492 48.4916C42.3939 33.9442 44.3336 23.6917 50.014 20.3665C51.3995 19.5352 53.0621 19.1196 54.8632 19.1196C63.176 19.1196 73.5671 25.9084 83.9581 36.1609C79.109 41.4257 74.2598 47.5218 69.5492 54.172C61.5135 54.8648 53.8934 56.1117 46.6889 57.6357C45.8576 54.4491 45.3034 51.4011 44.7492 48.4916V48.4916ZM10.5281 88.6703C10.5281 82.1586 18.4253 75.2312 32.28 70.105C35.0509 68.9966 38.099 68.0268 41.147 67.1955C43.3638 74.1228 46.1347 81.4658 49.4598 88.8088C46.1347 96.1518 43.2252 103.356 41.147 110.284C22.0275 104.742 10.5281 96.4289 10.5281 88.6703ZM50.014 156.974C44.3336 153.649 42.3939 143.396 44.7492 128.849C45.1649 125.94 45.8576 122.891 46.6889 119.705C53.8934 121.367 61.5135 122.476 69.5492 123.169C74.2598 129.819 79.109 135.776 83.9581 141.18C73.7056 151.294 63.3146 158.221 54.8632 158.221C53.0621 158.221 51.3995 157.805 50.014 156.974ZM134.251 128.849C136.606 143.396 134.666 153.649 128.986 156.974C127.6 157.805 125.938 158.221 124.137 158.221C115.824 158.221 105.433 151.432 95.0419 141.18C99.891 135.915 104.74 129.819 109.451 123.169C117.487 122.476 125.107 121.229 132.311 119.705C133.142 122.891 133.697 125.94 134.251 128.849V128.849ZM146.72 107.236C143.949 108.344 140.901 109.314 137.853 110.145C135.636 103.218 132.865 95.8748 129.54 88.5318C132.865 81.1888 135.775 73.9843 137.853 67.0569C156.972 72.5988 168.472 80.9117 168.472 88.6703C168.472 95.182 160.436 102.109 146.72 107.236Z" fill="#61DAFB"/>
</svg>
