<svg width="178" height="178" viewBox="0 0 178 178" fill="none" xmlns="http://www.w3.org/2000/svg">
<path fill-rule="evenodd" clip-rule="evenodd" d="M2.34808 77.8025C2.34808 78.7765 2.63488 79.4194 2.79559 80.0442C3.84301 84.1078 6.0944 87.595 8.76559 90.7761C12.5701 95.3093 17.2294 98.9587 22.0024 102.39C26.1422 105.366 30.3665 108.276 34.5229 111.23C35.2364 111.737 35.9111 112.32 36.6856 112.942C36.0192 113.302 35.465 113.62 34.8887 113.912C29.4036 116.694 24.1263 119.813 19.2619 123.591C16.3303 125.869 13.4956 128.289 11.4936 131.452C8.27236 136.54 7.13212 141.96 9.53314 147.747C10.2342 149.437 11.3038 150.897 12.8126 151.977C13.3016 152.326 13.8503 152.672 14.4225 152.808C15.8883 153.153 17.3818 153.379 18.8657 153.652L23.0678 153.649C27.7147 153.235 31.9445 151.643 35.7671 149.005C41.7412 144.882 45.766 139.354 47.4965 132.258C48.7545 127.102 48.8057 121.94 47.3233 116.806C47.1814 116.331 47.0177 115.862 46.8328 115.401C46.6527 114.94 46.4407 114.491 46.1913 113.916L55.7179 108.438L55.8606 108.56C55.6874 109.127 55.5031 109.692 55.3465 110.264C54.2146 114.398 53.4623 118.605 53.7325 122.895C54.0207 127.468 55.2967 131.747 57.9734 135.567C60.1375 138.657 65.2942 138.772 67.5941 135.671C68.4102 134.569 69.2013 133.418 69.7956 132.189C71.3488 128.982 72.7869 125.718 74.2707 122.476L74.5298 121.883C74.4231 123.418 74.2984 124.766 74.2416 126.115C74.1529 128.223 74.2763 130.317 74.9967 132.322C75.6132 134.037 76.662 135.319 78.6266 135.545C79.9705 135.699 81.0415 135.083 82.0294 134.303C83.5597 133.094 84.8282 131.586 85.7577 129.871C88.3914 125.035 91.0959 120.227 93.4831 115.268C96.0656 109.905 98.3239 104.386 100.722 98.931L101.118 97.9639C101.685 100.19 102.08 102.371 102.807 104.435C103.652 106.831 104.698 109.17 105.837 111.443C106.376 112.517 106.314 113.214 105.567 114.114C102.442 117.883 99.3699 121.697 96.2956 125.507C95.6153 126.348 94.9378 127.204 94.3711 128.123C94.0274 128.703 93.8014 129.345 93.7061 130.013C93.6108 130.627 93.757 131.255 94.1142 131.764C94.4715 132.273 95.0119 132.624 95.6222 132.743C96.854 133.009 98.1171 133.099 99.3741 133.011C103.665 132.695 107.561 131.189 111.005 128.637C115.468 125.331 116.9 120.82 115.82 115.474C115.527 114.023 115.011 112.613 114.508 111.215C114.282 110.584 114.267 110.142 114.678 109.555C118.246 104.46 121.294 99.0557 124.128 93.5262C124.241 93.3087 124.356 93.0912 124.552 92.8585C125.471 97.6383 126.854 102.245 129.331 106.425C128.067 107.643 126.816 108.747 125.684 109.963C123.192 112.643 121.03 115.552 119.903 119.101C119.418 120.63 119.045 122.185 119.261 123.818C119.596 126.355 121.675 128.004 124.17 127.426C129.509 126.19 134.119 123.674 137.487 119.217C139.754 116.216 139.96 112.869 139.011 109.362C138.751 108.409 138.442 107.471 138.109 106.378C139.427 105.969 140.711 105.479 142.04 105.175C148.938 103.601 155.761 103.876 162.409 106.367C166.29 107.822 169.425 110.256 171.284 114.085C173.555 118.767 172.3 123.209 167.887 126.168C167.476 126.444 167.005 126.661 166.664 127.006C166.555 127.133 166.473 127.281 166.424 127.44C166.375 127.6 166.36 127.768 166.38 127.934C166.409 128.105 166.859 128.318 167.118 128.315C168.569 128.304 169.745 127.544 170.874 126.762C173.703 124.805 175.768 122.171 176.212 118.703L176.3 118.443L176.193 116.184C176.15 116.054 176.225 115.925 176.215 115.827C175.614 110.777 172.916 106.86 168.993 103.79C164.448 100.236 159.082 98.773 153.407 98.5417C148.805 98.3436 144.208 99.0511 139.878 100.624C138.636 101.074 137.404 101.608 136.154 102.111C135.987 101.807 135.806 101.516 135.658 101.216C134.375 98.5888 132.821 96.0783 132.477 93.0663C132.233 90.9271 131.934 88.7907 132.443 86.6751C132.932 84.6398 133.569 82.6392 134.169 80.6317C134.478 79.5981 134.26 79.019 133.274 78.5535C132.93 78.382 132.563 78.2616 132.185 78.196C129.76 77.8441 127.369 78.045 125.021 78.728C124.189 78.9705 123.585 79.436 123.401 80.3559C123.296 80.8838 123.081 81.3895 122.931 81.9104C122.318 84.0759 121.882 86.283 120.89 88.346C118.405 93.5207 115.567 98.5001 112.664 103.443C112.349 103.977 112.018 104.501 111.622 105.148C110.602 103.014 109.514 101.099 109.185 98.8548C108.812 96.3166 108.518 93.7826 109.15 91.2638C109.62 89.3851 110.233 87.541 110.799 85.6872C111.066 84.8061 110.943 84.3433 110.145 83.8792C109.742 83.6451 109.286 83.4372 108.831 83.3693C106.345 82.9907 103.805 83.1985 101.413 83.9762C100.661 84.22 100.266 84.7063 100.036 85.4822C99.3602 87.771 98.7839 90.1152 97.8348 92.2918C93.9915 101.103 90.0374 109.869 86.0874 118.634C85.263 120.464 84.2974 122.23 83.3677 124.012C83.1322 124.464 82.7886 124.861 82.4949 125.285C82.2593 125.007 82.1679 124.816 82.1693 124.625C82.1762 123.498 82.0418 122.339 82.2566 121.25C82.916 117.956 83.6449 114.677 84.4428 111.414C85.094 108.718 85.8519 106.047 86.5737 103.369C86.8162 102.472 86.8203 101.634 86.1761 100.88C85.094 99.6182 82.8329 99.3411 81.4918 100.314L80.8988 100.649L81.0138 99.693C81.2964 97.6439 81.3532 95.6017 80.7907 93.583C80.0897 91.067 78.2941 89.6192 75.6839 89.6996C74.4675 89.737 73.19 89.9448 72.0637 90.3881C67.3267 92.2447 63.6843 95.5324 60.5836 99.4879C60.2962 99.8552 59.94 100.163 59.5348 100.394C55.5267 102.616 51.506 104.811 47.4868 107.014L43.0131 109.465C41.8133 108.32 40.7229 107.133 39.4857 106.126C35.7075 103.044 31.8683 100.039 28.0638 96.9927C24.6916 94.2924 21.4247 91.4799 18.9253 87.904C17.066 85.2439 15.8675 82.333 15.7525 79.0439C15.6071 74.8528 16.7958 71.0234 18.9294 67.4586C21.6588 62.8976 25.3816 59.2372 29.4742 55.9218C33.8038 52.4165 38.4867 49.4405 43.34 46.7236C50.1302 42.9233 57.1144 39.5593 64.6029 37.3384C72.2812 35.0607 80.0717 33.757 88.1074 34.6658C91.2663 35.0233 94.3337 35.7465 97.1504 37.2913C99.3076 38.4731 101.077 40.0207 101.9 42.4397C102.712 44.82 102.687 47.2321 102.124 49.6497C100.981 54.546 98.3003 58.5819 94.9267 62.1883C89.3931 68.1001 82.6431 72.1249 75.0438 74.7836C70.6744 76.3143 66.1283 77.284 61.5147 77.6695C57.7337 77.9868 54.0317 77.6515 50.4517 76.3367C48.0811 75.4652 46.0168 74.1324 44.357 72.1983C44.0605 71.8519 43.6809 71.4765 43.1281 71.8007C42.5864 72.1193 42.4908 72.6347 42.6723 73.157C42.9757 74.0243 43.2555 74.9277 43.728 75.7035C44.9153 77.6501 46.6472 79.0619 48.5536 80.2728C52.2154 82.6018 56.3081 83.3846 60.5518 83.5661C66.9914 83.8446 73.2746 82.883 79.469 81.1554C88.3125 78.6892 96.0018 74.3333 102.169 67.4614C107.303 61.7394 110.97 55.2817 111.756 47.4842C112.14 43.6783 111.731 39.95 109.949 36.478C108.017 32.7165 104.944 29.9192 101.269 27.992C95.9187 25.1865 90.1441 23.553 84.1838 23.553H78.2124C70.9941 23.553 64.0154 25.6215 57.2322 28.089C52.0976 29.958 47.0628 32.1637 42.1749 34.6049C31.5303 39.9237 21.6172 46.3371 13.4748 55.1556C9.41815 59.5489 5.98356 64.3967 4.00788 70.1048C3.41158 71.8091 2.89789 73.5411 2.46862 75.2948M41.0388 125.19C40.5774 131.368 37.7774 136.376 33.2012 140.433C30.627 142.713 27.6745 144.337 24.2358 144.908C22.9888 145.114 21.7128 145.164 20.5033 144.647C18.7784 143.91 18.3919 142.379 18.3586 140.749C18.3073 138.15 19.2176 135.8 20.4659 133.564C22.0952 130.649 24.4838 128.426 27.0344 126.351C31.0523 123.08 35.411 120.312 39.875 117.699L40.2117 117.56C40.9016 120.109 41.23 122.627 41.0388 125.19V125.19ZM75.8945 98.3408C75.5689 100.314 75.1616 102.288 74.5852 104.2C72.5929 110.818 70.0339 117.232 67.2672 123.559C66.7559 124.73 66.0119 125.798 65.3649 126.908C65.2548 127.078 65.123 127.234 64.9728 127.371C64.172 128.162 63.4128 128.12 63.0082 127.085C62.5371 125.883 62.2476 124.595 61.9982 123.322C61.8306 122.467 61.8707 121.57 61.8181 120.694C61.8721 114.468 63.7716 108.809 66.9942 103.542C68.3229 101.369 69.7693 99.2995 71.9791 97.9251C72.6666 97.4977 73.4104 97.1685 74.189 96.947C75.3666 96.6158 76.0898 97.1603 75.8945 98.3408V98.3408ZM99.6747 128.638L108.222 118.659C108.578 122.365 102.278 129.763 99.6747 128.638ZM126.973 121.923C126.369 122.269 125.711 122.519 125.091 122.839C124.525 123.132 124.338 122.836 124.321 122.348C124.313 122.011 124.356 121.674 124.45 121.349C125.604 117.279 127.728 113.804 130.888 110.978L131.11 110.864C132.613 115.069 130.876 119.687 126.973 121.923Z" fill="#CB6699"/>
</svg>
