<svg width="178" height="178" viewBox="0 0 178 178" fill="none" xmlns="http://www.w3.org/2000/svg">
<path d="M89.0586 35.4702C65.4127 35.4702 50.6394 47.2883 44.7235 70.9341C53.5877 59.1147 63.9358 54.6826 75.7553 57.6378C82.5039 59.3197 87.3267 64.2132 92.6677 69.636C101.36 78.4573 111.421 88.6696 133.394 88.6696C157.038 88.6696 171.813 76.8501 177.729 53.1987C168.863 65.0251 158.516 69.4572 146.696 66.502C139.948 64.8187 135.131 59.9266 129.783 54.5038C121.096 45.6825 111.038 35.4702 89.0586 35.4702V35.4702ZM44.7235 88.6696C21.079 88.6696 6.30433 100.489 0.388367 124.14C9.25262 112.314 19.5993 107.882 31.4202 110.837C38.1688 112.52 42.9916 117.413 48.3326 122.835C57.0251 131.657 67.0864 141.869 89.0586 141.869C112.703 141.869 127.478 130.051 133.394 106.405C124.528 118.224 114.181 122.657 102.361 119.701C95.6133 118.019 90.796 113.126 85.448 107.703C76.7611 98.8819 66.7026 88.6696 44.7235 88.6696Z" fill="#38B2AC"/>
</svg>
