<svg width="178" height="178" viewBox="0 0 178 178" fill="none" xmlns="http://www.w3.org/2000/svg">
<path d="M5.61835 62.9597C5.61835 62.9597 1.42453 59.9242 6.46349 55.8758L18.1957 45.3545C18.1957 45.3545 21.5568 41.8091 25.1078 44.9001L133.417 127.097V166.514C133.417 166.514 133.363 172.704 125.441 172.023L5.61835 62.9597Z" fill="#2489CA"/>
<path d="M33.5398 88.364L5.61839 113.805C5.61839 113.805 2.75046 115.943 5.61839 119.77L18.5809 131.584C18.5809 131.584 21.6594 134.902 26.2121 131.129L55.8044 108.632L33.5398 88.364Z" fill="#1070B3"/>
<path d="M82.5508 88.5726L133.748 49.3845L133.417 10.1798C133.417 10.1798 131.231 1.62317 123.936 6.08023L55.8043 68.2339L82.5508 88.5726Z" fill="#0877B9"/>
<path d="M125.44 172.071C128.412 175.123 132.017 174.121 132.017 174.121L171.914 154.417C177.022 150.926 176.307 146.596 176.307 146.596V28.9074C176.307 23.7326 171.026 21.9468 171.026 21.9468L136.443 5.23659C128.888 0.555079 123.937 6.08173 123.937 6.08173C123.937 6.08173 130.3 1.48612 133.417 10.1827V165.795C133.417 166.866 133.19 167.915 132.736 168.862C131.827 170.708 129.846 172.423 125.11 171.704L125.44 172.071Z" fill="#3C99D4"/>
</svg>
